<svg width="36" height="36" viewBox="0 0 36 36" fill="none" xmlns="http://www.w3.org/2000/svg">
  <!-- Green rounded background -->
  <rect width="36" height="36" rx="7" fill="#5cb85c"/>

  <!-- Rabbit icon (24x24) positioned at (6, 6) -->
  <g transform="translate(6, 6)">
    <!-- Part 0: Left ear/head part - positioned at bottom-[8.33%] left-1/2 right-[29.15%] top-[62.5%] -->
    <g transform="translate(12, 15)">
      <svg width="5.00359" height="6.99997" viewBox="0 0 5.00359 6.99997" preserveAspectRatio="none">
        <path d="M1.2871 0.00979996C1.9585 0.0574 2.609 0.2744 3.1768 0.6416C3.8252 1.0612 4.3385 1.6594 4.6543 2.3643C4.9701 3.0693 5.0747 3.8509 4.9561 4.6143C4.8373 5.3777 4.5004 6.0911 3.9854 6.667C3.6171 7.0785 2.9848 7.1133 2.5732 6.7451C2.1618 6.3769 2.127 5.7446 2.4951 5.333C2.7524 5.0452 2.9211 4.6891 2.9805 4.3076C3.0398 3.926 2.987 3.5351 2.8291 3.1826C2.6712 2.8301 2.4142 2.5301 2.0898 2.3203C1.8061 2.1368 1.481 2.0287 1.1455 2.0049L1.001 2L0.8994 1.9951C0.3949 1.9447 0.000700419 1.5189 4.1868e-07 1.001C-0.000499581 0.448799 0.4469 0.0007 0.999 0L1.2871 0.00979996Z" fill="white"/>
      </svg>
    </g>

    <!-- Part 1: Eye - positioned at inset-[45.83%_20.79%_45.83%_70.83%] -->
    <g transform="translate(17, 11)">
      <svg width="2.0098" height="2" viewBox="0 0 2.0098 2" preserveAspectRatio="none">
        <path d="M1.0098 0L1.1123 0.00489998C1.6165 0.0561 2.0098 0.4822 2.0098 1C2.0098 1.5178 1.6165 1.9439 1.1123 1.9951L1.0098 2H1C0.4477 2 0 1.5523 0 1C0 0.4477 0.4477 0 1 0H1.0098Z" fill="white"/>
      </svg>
    </g>

    <!-- Part 2: Main body - positioned at inset-[8.42%_4.17%_8.34%_20.83%] -->
    <g transform="translate(5, 2.02)">
      <svg width="18" height="19.9795" viewBox="0 0 18 19.9795" preserveAspectRatio="none">
        <path d="M0 14.9795C0.00011 12.858 0.84276 10.8234 2.34277 9.32322C3.36961 8.29642 4.64714 7.57704 6.0312 7.22559L3.89258 5.08691C3.61597 4.81025 3.39679 4.48157 3.24707 4.12012C3.09734 3.7586 3.02051 3.37079 3.02051 2.97949C3.02062 2.18945 3.33401 1.43176 3.89258 0.87305C4.45142 0.31421 5.2097 0 6 0L6.292 0.0146499C6.5832 0.0433199 6.8693 0.1142 7.1406 0.22656C7.5021 0.37632 7.8307 0.59637 8.1074 0.87305L11.2197 3.98535C14.9711 4.10234 17.9998 7.20092 18 10.9795V11.9795C18 12.7751 17.6837 13.5389 17.1211 14.1015C16.5585 14.664 15.7955 14.9795 15 14.9795H14C13.4697 14.9795 12.961 15.1905 12.5859 15.5654C12.211 15.9404 12.0001 16.4492 12 16.9795C12 17.5318 11.5523 17.9795 11 17.9795C10.4477 17.9795 10 17.5318 10 16.9795C10.0001 15.9188 10.4218 14.9014 11.1719 14.1513C11.922 13.4013 12.9392 12.9795 14 12.9795H15C15.2652 12.9795 15.5195 12.874 15.707 12.6865C15.8944 12.499 16 12.2446 16 11.9795V10.9795C15.9998 8.23192 13.7476 5.97949 11 5.97949H10.7998C10.5347 5.97944 10.2803 5.87401 10.0928 5.68652L6.6934 2.28711C6.6024 2.19612 6.4939 2.12346 6.375 2.07422C6.2857 2.03726 6.1915 2.01429 6.0957 2.00488L6 2C5.7401 2 5.4904 2.10334 5.3066 2.28711C5.1231 2.47075 5.0206 2.71989 5.0205 2.97949C5.0205 3.10806 5.0456 3.2357 5.0947 3.35449C5.1439 3.47329 5.2157 3.5819 5.3066 3.67285L8.9072 7.27246C9.1932 7.55839 9.2786 7.98872 9.124 8.36232C8.9693 8.73592 8.6046 8.97942 8.2002 8.97952H8C6.4088 8.97952 4.88301 9.61222 3.75781 10.7373C2.63269 11.8624 2.00011 13.3883 2 14.9795C2 15.7751 2.3163 16.5389 2.87891 17.1015C3.44149 17.664 4.20449 17.9795 5 17.9795H13L13.1025 17.9853C13.6065 18.0367 13.9998 18.462 14 18.9795C14 19.4971 13.6066 19.9232 13.1025 19.9746L13 19.9795H5C3.67405 19.9795 2.4025 19.4531 1.46484 18.5156C0.52716 17.5779 0 16.3056 0 14.9795Z" fill="white"/>
      </svg>
    </g>

    <!-- Part 3: Right ear - positioned at inset-[4.17%_12.5%_60.25%_62.5%] -->
    <g transform="translate(15, 1)">
      <svg width="6" height="8.54004" viewBox="0 0 6 8.54004" preserveAspectRatio="none">
        <path d="M4 7.54004V3C4 2.73478 3.8946 2.48051 3.707 2.29297C3.5429 2.12883 3.3276 2.02757 3.0986 2.00488L3 2C2.7348 2 2.4805 2.10543 2.293 2.29297C2.1054 2.48051 2 2.73478 2 3V6C2 6.55228 1.5523 7 1 7C0.4477 7 0 6.55228 0 6V3C0 2.20435 0.3163 1.44152 0.8789 0.87891C1.4415 0.3163 2.2044 0 3 0L3.2969 0.01465C3.9835 0.08291 4.6289 0.38671 5.1211 0.87891C5.6837 1.44152 6 2.20435 6 3V7.54004C6 8.09231 5.5523 8.54004 5 8.54004C4.4477 8.54004 4 8.09231 4 7.54004Z" fill="white"/>
      </svg>
    </g>

    <!-- Part 4: Face detail - positioned at bottom-1/4 left-[4.17%] right-[64.12%] top-[41.67%] -->
    <g transform="translate(1, 10)">
      <svg width="7.61213" height="7.99987" viewBox="0 0 7.61213 7.99987" preserveAspectRatio="none">
        <path d="M3.68476 0.0124957C4.4443 -0.0476043 5.20537 0.109896 5.87812 0.467596C6.46696 0.780696 6.96724 1.2355 7.33417 1.7889L7.48261 2.032L7.52851 2.1238C7.73187 2.588 7.55443 3.1397 7.1037 3.3943C6.6529 3.649 6.08869 3.5162 5.79609 3.1023L5.7414 3.0164L5.66718 2.8943C5.48381 2.6178 5.23386 2.3907 4.93964 2.2342C4.60318 2.0553 4.22187 1.9756 3.84199 2.0057C3.46219 2.0358 3.09914 2.1745 2.79511 2.4041C2.49102 2.6337 2.25906 2.9454 2.12617 3.3025C1.99328 3.6597 1.9651 4.0472 2.04511 4.4197C2.12511 4.7922 2.30963 5.134 2.57734 5.4051C2.84515 5.6762 3.18525 5.8654 3.55683 5.95C3.9283 6.0344 4.31636 6.0111 4.67499 5.8826C5.19487 5.6964 5.76705 5.9672 5.95331 6.4871C6.13934 7.0068 5.86938 7.579 5.3498 7.7654C4.63232 8.0225 3.85565 8.0693 3.11249 7.9002C2.36949 7.7311 1.69004 7.3534 1.15449 6.8113C0.61886 6.2691 0.24908 5.5848 0.0890601 4.8396C-0.0709159 4.0947 -0.0144808 3.3194 0.25117 2.6053C0.51695 1.891 0.98183 1.2667 1.59003 0.807396C2.19814 0.348296 2.92517 0.0726957 3.68476 0.0124957Z" fill="white"/>
      </svg>
    </g>
  </g>
</svg>
